<svg xmlns="http://www.w3.org/2000/svg" viewBox="0 0 400 100" width="100%" height="100%">
  <rect width="100%" height="100%" fill="none"/>
  <!-- Tricare Shield / Ribbon style -->
  <path d="M 35,20 H 95 V 50 C 95,70 65,85 65,85 C 65,85 35,70 35,50 Z" fill="#0a2540"/>
  <path d="M 45,28 H 85 V 48 C 85,62 65,73 65,73 C 65,73 45,62 45,48 Z" fill="#d9232a"/>
  <polygon points="65,33 69,42 79,42 71,47 74,57 65,51 56,57 59,47 51,42 61,42" fill="#ffffff"/>
  <!-- Text -->
  <text x="125" y="58" font-family="'Plus Jakarta Sans', sans-serif" font-size="32" font-weight="800" fill="#0a2540" letter-spacing="1">TRICARE</text>
  <text x="125" y="78" font-family="'Inter', sans-serif" font-size="12" font-weight="700" fill="#d9232a" letter-spacing="2">MILITARY HEALTH</text>
</svg>